<svg width="192" height="192" xmlns:xlink="http://www.w3.org/1999/xlink" xmlns="http://www.w3.org/2000/svg"><defs><path id="a" d="M146.32 42.94v85.93H42.64V42.94z"/><path id="b" d="M110.97 120.08v-6.74c3.71-1.44 4.96-4.4 5.04-6.19v-7.58c4.19-1.45 5.79-4.9 6.03-6.93 0-.02.01-.07.02-.18v-7.74h14.54c.79.04 3.28 0 5.42-1.92 2.01-1.8 3.03-4.58 3.03-8.26 0-3.59-1-6.38-2.96-8.27-2.28-2.21-5.02-2.31-5.61-2.3h-35.02c3.77-3.73 5.68-7.22 5.68-10.4 0-8.15-4.73-9.37-7.55-9.37-2.39 0-5.74 1.03-6.11 1.14l-.36.12L55.8 68.8H43.84v47.67l29.2 11.2h28.36c3.32 0 5.87-.91 7.58-2.7 1.9-1.98 2.01-4.26 1.99-4.89zm-36.85 1.76-24.45-9.38V74.64h7.8c22.86-14.3 35.55-22.24 38.09-23.83 1.05-.31 2.97-.78 4.03-.78.83 0 .99.16 1.04.21.32.31.68 1.36.68 3.33 0 2.92-5.25 7.87-8.8 10.29 0 .01.02.04.06.11h-9.72v5.83h53.64c.06-.01.1-.01.1-.01.01 0 .82.06 1.45.67.77.75 1.18 2.16 1.18 4.08 0 1.86-.37 3.23-1.04 3.88-.45.43-1.02.47-1.19.48-.01 0-.02-.01-.05-.01h-34.73v5.83h14.02v7.32c-.11.47-.82 2.37-4.54 2.37h-9.48v5.83h7.97v6.77-.21c-.18.6-1.22 1.53-4.14 1.53h-9.48v5.83h8.58v5.96c0 .07.01.11.01.12 0 .01-.09.39-.38.7-.55.58-1.75.9-3.37.9z"/><path id="c" d="M-2.96-3.31h186v186h-186z"/><path id="d" d="M2.04 90c0 48.77 39.54 88.31 88.31 88.31s88.31-39.54 88.31-88.31c-.01-48.77-39.54-88.31-88.31-88.31S2.04 41.23 2.04 90zm13.29 0c0-41.43 33.58-75.02 75.02-75.02 41.43 0 75.02 33.59 75.02 75.02 0 41.43-33.59 75.02-75.02 75.02-41.43 0-75.02-33.59-75.02-75.02z"/><linearGradient id="e" x1="2.04" x2="178.66" y1="90" y2="90" gradientUnits="userSpaceOnUse"><stop offset="0%" stop-color="#2dad67"/><stop offset="100%" stop-color="#2dad67"/></linearGradient><linearGradient id="f" x1="190.02" x2="332.17" y1="59.22" y2="59.22" gradientUnits="userSpaceOnUse"><stop offset="0%" stop-color="#3a3a3a"/><stop offset="100%" stop-color="#3a3a3a"/></linearGradient><linearGradient id="g" x1="190.69" x2="480.39" y1="102.42" y2="102.42" gradientUnits="userSpaceOnUse" gradientTransform="matrix(.74452 0 0 .93765 -97.98 23.641)"><stop offset="0%" stop-color="#3a3a3a"/><stop offset="100%" stop-color="#3a3a3a"/></linearGradient></defs><use xlink:href="#a" width="100%" height="100%" fill-opacity="0" transform="translate(1.52 10.095)"/><use xlink:href="#a" width="100%" height="100%" fill-opacity="0" stroke="#000" stroke-opacity="0" transform="translate(1.52 10.095)"/><use xlink:href="#b" width="100%" height="100%" fill-opacity="0" stroke="#000" stroke-opacity="0" transform="translate(7.555 14.065)"/><use xlink:href="#c" width="100%" height="100%" fill-opacity="0" transform="translate(5.96 6.31)"/><use xlink:href="#c" width="100%" height="100%" fill-opacity="0" stroke="#000" stroke-opacity="0" transform="translate(5.96 6.31)"/><g transform="translate(5.65 6)"><use xlink:href="#d" width="100%" height="100%" fill="url(#e)" style="fill:url(#e)"/><use xlink:href="#d" width="100%" height="100%" fill-opacity="0" stroke="#000" stroke-opacity="0"/></g><path d="M187.77 71.69c63.27-.5 83.27-.5 146.55 0" style="fill-opacity:0" transform="matrix(.77267 0 0 .77267 -114.18 34.018)"/><path style="color:#000;fill:#000;fill-opacity:0;-inkscape-stroke:none" d="M187.77 71.69c63.27-.5 83.27-.5 146.55 0" transform="matrix(.77267 0 0 .77267 -114.18 34.018)"/><path style="color:#000;fill:#000;fill-opacity:0;-inkscape-stroke:none" d="M261.041 70.814c-20.82 0-41.64.125-73.275.375l.008 1c63.269-.5 83.263-.5 146.543 0l.008-1c-31.64-.25-52.463-.375-73.284-.375z" transform="matrix(.77267 0 0 .77267 -114.18 34.018)"/><g><path d="M201.37 69.19c-.95 0-1.24-.38-1.38-.42-.28-.28-.42-.74-.42-1.38v-6.4c-4.59-6.15-7.14-9.56-7.65-10.25-1.15-1.55-1.38-2.43-1.53-2.7-.25-.76-.37-1.91-.37-3.45v-9.6c0-.95.38-1.23.42-1.37.28-.28.74-.43 1.38-.43h7.7c.95 0 1.23.39 1.37.43.28.28.43.74.43 1.37v8.2c0 .5.04.95.05 1.05.03.37.16.72.4 1.05 1.38 2.16 2.14 3.36 2.3 3.6.25.45.47.59.52.65.18.14.41.2.68.2h.5c.4 0 .6-.18.67-.2.18-.13.36-.35.53-.65 1.38-2.16 2.14-3.36 2.3-3.6.35-.5.36-.94.4-1.05.03-.36.05-.71.05-1.05v-8.2c0-.95.38-1.23.42-1.37.28-.28.74-.43 1.38-.43h7.45c.95 0 1.23.39 1.37.43.28.28.43.74.43 1.37v9.6c0 2.3-.36 3.11-.4 3.45-.27.77-.77 1.67-1.5 2.7l-7.6 10.3v6.35c0 .95-.39 1.24-.43 1.38-.28.28-.74.42-1.37.42zm55.6-9.45c0 2.3-.61 3.76-.68 4.18-.67 1.87-2.16 2.88-2.4 3.2-1.72 1.32-4.27 1.87-4.75 2.07-3.02.75-6.91.68-7.67.75-4.65 0-6.93-.67-7.7-.75-3.05-.75-4.3-1.86-4.78-2.07-1.72-1.33-2.16-2.88-2.4-3.2-.45-1.25-.67-2.64-.67-4.18V42.69c0-2.3.6-3.75.67-4.17.68-1.88 2.16-2.9 2.4-3.23 1.73-1.35 4.3-1.89 4.78-2.1 3.05-.75 6.93-.67 7.7-.75 4.65 0 6.9.68 7.67.75 3.03.75 4.28 1.89 4.75 2.1 1.73 1.35 2.16 2.91 2.4 3.23.45 1.25.68 2.64.68 4.17zm-19.7-1.8c0 1 .67 1.51.75 1.68.75.67 3.1.61 3.45.67 2.7 0 3.1-.6 3.45-.67.5-.45.75-1.01.75-1.68V44.49c0-.95-.68-1.46-.75-1.62-.75-.68-3.11-.61-3.45-.68-2.7 0-3.11.61-3.45.68-.5.45-.75.99-.75 1.62zm56.7 1.8c0 2.3-.61 3.76-.68 4.18-.67 1.87-2.16 2.88-2.4 3.2-1.72 1.32-4.25 1.87-4.72 2.07-3 .75-6.89.68-7.65.75-4.65 0-6.89-.67-7.65-.75-3-.75-4.26-1.86-4.73-2.07-1.72-1.33-2.16-2.88-2.4-3.2-.45-1.25-.67-2.64-.67-4.18V34.99c0-.95.38-1.23.42-1.37.28-.28.74-.43 1.38-.43h7.85c.95 0 1.23.39 1.37.43.28.28.43.74.43 1.37v22.8c0 1 .67 1.51.75 1.68.75.67 3.01.61 3.35.67 2.65 0 3.06-.6 3.4-.67.5-.45.75-1.01.75-1.68v-22.8c0-.95.38-1.23.42-1.37.28-.28.74-.43 1.38-.43h7.6c.95 0 1.23.39 1.37.43.28.28.43.74.43 1.37zm17.95-17.55v6.4h3.75c1.3 0 1.57-.6 1.75-.67.3-.45.45-1.01.45-1.68v-1.7c0-1-.41-1.5-.45-1.67-.3-.45-.89-.68-1.75-.68zm-9.5 27c-.95 0-1.24-.38-1.38-.42-.28-.28-.42-.74-.42-1.38v-32.4c0-.95.38-1.23.42-1.37.28-.28.74-.43 1.38-.43h16.65c5.6 0 6.95 2.1 7.72 2.33 1.42 1.55 2.13 3.56 2.13 6.02v2.3c0 2.1-.57 3.22-.63 3.58-.62 1.47-1.96 1.91-2.17 2.12 2.7.3 3.93 1.98 4.37 2.2 1.12 1.27 1.68 2.95 1.68 5.05v10.6c0 .95-.39 1.24-.43 1.38-.28.28-.74.42-1.37.42h-7.75c-.95 0-1.24-.38-1.38-.42-.28-.28-.42-.74-.42-1.38v-7.65c0-1.1-.39-1.46-.43-1.62-.28-.35-.77-.53-1.47-.53h-7v9.8c0 .95-.39 1.24-.43 1.38-.28.28-.74.42-1.37.42z" style="fill:url(#f)" transform="matrix(.73345 0 0 .73345 -96.07 35.593)"/><path style="color:#000;fill:#000;fill-opacity:0;-inkscape-stroke:none" d="M201.37 69.19c-.95 0-1.24-.38-1.38-.42-.28-.28-.42-.74-.42-1.38v-6.4c-4.59-6.15-7.14-9.56-7.65-10.25-1.15-1.55-1.38-2.43-1.53-2.7-.25-.76-.37-1.91-.37-3.45v-9.6c0-.95.38-1.23.42-1.37.28-.28.74-.43 1.38-.43h7.7c.95 0 1.23.39 1.37.43.28.28.43.74.43 1.37v8.2c0 .5.04.95.05 1.05.03.37.16.72.4 1.05 1.38 2.16 2.14 3.36 2.3 3.6.25.45.47.59.52.65.18.14.41.2.68.2h.5c.4 0 .6-.18.67-.2.18-.13.36-.35.53-.65 1.38-2.16 2.14-3.36 2.3-3.6.35-.5.36-.94.4-1.05.03-.36.05-.71.05-1.05v-8.2c0-.95.38-1.23.42-1.37.28-.28.74-.43 1.38-.43h7.45c.95 0 1.23.39 1.37.43.28.28.43.74.43 1.37v9.6c0 2.3-.36 3.11-.4 3.45-.27.77-.77 1.67-1.5 2.7l-7.6 10.3v6.35c0 .95-.39 1.24-.43 1.38-.28.28-.74.42-1.37.42zm55.6-9.45c0 2.3-.61 3.76-.68 4.18-.67 1.87-2.16 2.88-2.4 3.2-1.72 1.32-4.27 1.87-4.75 2.07-3.02.75-6.91.68-7.67.75-4.65 0-6.93-.67-7.7-.75-3.05-.75-4.3-1.86-4.78-2.07-1.72-1.33-2.16-2.88-2.4-3.2-.45-1.25-.67-2.64-.67-4.18V42.69c0-2.3.6-3.75.67-4.17.68-1.88 2.16-2.9 2.4-3.23 1.73-1.35 4.3-1.89 4.78-2.1 3.05-.75 6.93-.67 7.7-.75 4.65 0 6.9.68 7.67.75 3.03.75 4.28 1.89 4.75 2.1 1.73 1.35 2.16 2.91 2.4 3.23.45 1.25.68 2.64.68 4.17zm-19.7-1.8c0 1 .67 1.51.75 1.68.75.67 3.1.61 3.45.67 2.7 0 3.1-.6 3.45-.67.5-.45.75-1.01.75-1.68V44.49c0-.95-.68-1.46-.75-1.62-.75-.68-3.11-.61-3.45-.68-2.7 0-3.11.61-3.45.68-.5.45-.75.99-.75 1.62zm56.7 1.8c0 2.3-.61 3.76-.68 4.18-.67 1.87-2.16 2.88-2.4 3.2-1.72 1.32-4.25 1.87-4.72 2.07-3 .75-6.89.68-7.65.75-4.65 0-6.89-.67-7.65-.75-3-.75-4.26-1.86-4.73-2.07-1.72-1.33-2.16-2.88-2.4-3.2-.45-1.25-.67-2.64-.67-4.18V34.99c0-.95.38-1.23.42-1.37.28-.28.74-.43 1.38-.43h7.85c.95 0 1.23.39 1.37.43.28.28.43.74.43 1.37v22.8c0 1 .67 1.51.75 1.68.75.67 3.01.61 3.35.67 2.65 0 3.06-.6 3.4-.67.5-.45.75-1.01.75-1.68v-22.8c0-.95.38-1.23.42-1.37.28-.28.74-.43 1.38-.43h7.6c.95 0 1.23.39 1.37.43.28.28.43.74.43 1.37zm17.95-17.55v6.4h3.75c1.3 0 1.57-.6 1.75-.67.3-.45.45-1.01.45-1.68v-1.7c0-1-.41-1.5-.45-1.67-.3-.45-.89-.68-1.75-.68zm-9.5 27c-.95 0-1.24-.38-1.38-.42-.28-.28-.42-.74-.42-1.38v-32.4c0-.95.38-1.23.42-1.37.28-.28.74-.43 1.38-.43h16.65c5.6 0 6.95 2.1 7.72 2.33 1.42 1.55 2.13 3.56 2.13 6.02v2.3c0 2.1-.57 3.22-.63 3.58-.62 1.47-1.96 1.91-2.17 2.12 2.7.3 3.93 1.98 4.37 2.2 1.12 1.27 1.68 2.95 1.68 5.05v10.6c0 .95-.39 1.24-.43 1.38-.28.28-.74.42-1.37.42h-7.75c-.95 0-1.24-.38-1.38-.42-.28-.28-.42-.74-.42-1.38v-7.65c0-1.1-.39-1.46-.43-1.62-.28-.35-.77-.53-1.47-.53h-7v9.8c0 .95-.39 1.24-.43 1.38-.28.28-.74.42-1.37.42z" transform="matrix(.73345 0 0 .73345 -96.07 35.593)"/><path style="color:#000;fill:#000;fill-opacity:0;-inkscape-stroke:none" d="m241.443 31.94-.025.003c-.282.03-1.51.037-2.973.121-1.463.085-3.218.253-4.795.641l-.04.01-.04.017c-.042.019-.312.104-.65.206-.338.101-.768.234-1.24.404-.945.34-2.064.826-2.998 1.555l-.055.042-.041.057c.012-.016-.133.135-.318.309-.186.173-.426.4-.682.681-.513.562-1.097 1.342-1.467 2.364l-.015.043-.006.045c-.013.073-.193.621-.358 1.351-.165.73-.32 1.707-.32 2.9V59.74c0 1.588.227 3.038.699 4.35l.025.07.045.06c-.012-.016.082.151.186.366s.242.496.431.812a7.542 7.542 0 0 0 1.877 2.118l.05.037.056.025c.09.04.61.403 1.394.817.785.414 1.902.896 3.467 1.28l.033.009.036.004c.292.03 1.107.221 2.375.402 1.268.18 3.028.35 5.377.35h.021l.023-.003c.288-.026 1.51-.033 2.971-.119 1.46-.086 3.211-.254 4.774-.642l.037-.01.035-.014c.05-.02.318-.104.654-.205.336-.1.763-.234 1.233-.402.938-.337 2.048-.815 2.976-1.527l.053-.043.04-.055c-.012.018.135-.131.321-.303.187-.171.43-.397.688-.676.515-.557 1.097-1.334 1.463-2.353l.015-.041.008-.045c.012-.07.194-.623.361-1.356.168-.732.327-1.712.327-2.906V42.69c0-1.58-.24-3.028-.711-4.338l-.026-.073-.045-.058c.014.018-.078-.15-.181-.366-.103-.215-.24-.499-.428-.818a7.592 7.592 0 0 0-1.883-2.14l-.047-.04-.056-.023c-.078-.035-.6-.41-1.381-.832-.782-.422-1.896-.912-3.453-1.297l-.037-.01-.037-.004c-.284-.025-1.093-.216-2.354-.398-1.26-.182-3.012-.354-5.361-.354zm-49.623.75c-.718 0-1.324.165-1.734.576l-.092.091-.035.125c.035-.123.029-.07-.016-.003-.044.065-.112.17-.177.304-.131.27-.246.666-.246 1.207v9.6c0 1.566.112 2.748.394 3.605l.016.047.023.041c.016.028.147.375.379.848.232.472.593 1.108 1.185 1.906.51.688 3.075 4.12 7.553 10.12v6.234c0 .713.152 1.317.567 1.732l.091.092.125.035c-.122-.035-.066-.027 0 .018.067.044.171.112.307.177.271.13.667.244 1.21.244h8.1c.705 0 1.309-.151 1.723-.566l.092-.092.035-.123c-.036.128-.03.069.016.002.045-.066.117-.17.183-.306.134-.272.25-.67.25-1.213v-6.186l7.506-10.172.002-.004c.748-1.054 1.271-1.987 1.565-2.824l.017-.053.008-.054c.005-.043.111-.398.211-.96.1-.56.192-1.372.192-2.548v-9.6c0-.71-.166-1.314-.576-1.724l-.092-.09-.125-.037c.129.037.075.031.01-.014a2.382 2.382 0 0 0-.305-.184c-.27-.134-.667-.251-1.21-.251h-7.452c-.718 0-1.322.165-1.732.576l-.092.091-.035.125c.035-.123.028-.069-.016-.003-.045.065-.114.17-.18.304-.13.27-.244.666-.244 1.207v8.2c0 .315-.02.648-.049.994-.005.03-.018.076-.023.105-.011.06-.025.125-.045.197a1.63 1.63 0 0 1-.242.518l-.004.004-.004.004c-.182.272-.925 1.45-2.305 3.61l-.008.01-.006.01c-.145.256-.291.417-.383.485l-.037.018c-.031.017-.056.031-.086.045a.601.601 0 0 1-.26.05h-.5c-.195 0-.3-.04-.373-.095a1.832 1.832 0 0 1-.389-.498l-.01-.018-.01-.016c-.14-.208-.915-1.43-2.296-3.591l-.008-.014-.01-.012a1.512 1.512 0 0 1-.304-.797l-.002-.004v-.005a11.651 11.651 0 0 1-.047-1v-8.2c0-.71-.166-1.314-.577-1.724l-.091-.09-.125-.037c.129.037.073.031.008-.014a2.382 2.382 0 0 0-.305-.184c-.27-.134-.668-.251-1.211-.251zm73.05 0c-.719 0-1.323.165-1.733.576l-.092.091-.035.125c.035-.123.029-.07-.016-.003-.044.065-.114.17-.18.304-.13.27-.244.666-.244 1.207v24.75c0 1.588.227 3.038.7 4.35l.025.07.045.06c-.012-.016.08.151.184.366.103.215.242.496.431.812.378.633.961 1.408 1.88 2.118l.046.037.055.023c.087.04.607.405 1.386.819.78.413 1.886.896 3.426 1.28l.035.009.036.003c.286.03 1.09.222 2.347.403 1.257.18 3.005.35 5.354.35h.023l.024-.003c.287-.026 1.51-.033 2.968-.119 1.459-.086 3.203-.254 4.756-.642l.04-.01.034-.016c.045-.019.312-.104.645-.205.333-.1.755-.232 1.22-.4.932-.337 2.038-.816 2.965-1.528l.053-.042.041-.055c-.013.017.134-.132.32-.303.187-.171.43-.397.688-.676.515-.557 1.098-1.334 1.463-2.353l.015-.041.008-.045c.012-.07.194-.623.362-1.356.167-.732.326-1.712.326-2.906V34.99c0-.71-.168-1.314-.578-1.724l-.09-.09-.125-.037c.129.036.073.031.008-.014a2.382 2.382 0 0 0-.305-.184c-.27-.134-.667-.252-1.21-.252h-7.6c-.718 0-1.324.166-1.735.577l-.092.091-.035.125c.036-.123.03-.07-.015-.004s-.113.17-.178.305c-.13.27-.246.665-.246 1.207V57.79c0 .537-.18.925-.574 1.287-.21.085-.359.178-.668.281-.414.138-1.121.284-2.409.284l.088.007c-.192-.034-.354-.03-.623-.043a15.834 15.834 0 0 1-.931-.068c-.668-.073-1.363-.276-1.547-.44-.033-.037-.072-.105-.106-.144a2.725 2.725 0 0 1-.215-.283 1.549 1.549 0 0 1-.265-.881V34.99c0-.71-.166-1.314-.576-1.724l-.092-.09-.125-.037c.129.037.075.031.01-.014a2.382 2.382 0 0 0-.305-.184c-.27-.134-.667-.252-1.21-.252zm37.55 0c-.718 0-1.324.165-1.734.576l-.09.091-.037.125c.035-.123.029-.07-.016-.003-.044.065-.112.17-.178.304-.13.27-.246.666-.246 1.207v32.4c0 .714.152 1.318.567 1.733l.091.092.125.035c-.122-.035-.066-.027 0 .018.067.044.173.112.309.177.271.13.667.244 1.209.244h7.7c.703 0 1.31-.151 1.724-.566l.092-.092.035-.123c-.037.128-.03.069.015.002a2.43 2.43 0 0 0 .182-.306c.134-.272.252-.67.252-1.213V58.09h6.5c.61 0 .917.149 1.072.34.017.025.035.08.05.105.038.069.077.14.116.235.08.19.162.48.162.97v7.65c0 .714.152 1.318.567 1.733l.092.092.125.035c-.123-.035-.067-.027 0 .018.066.044.17.112.306.177.272.13.668.245 1.21.245h7.75c.703 0 1.31-.152 1.724-.567l.092-.092.035-.123c-.037.128-.03.069.015.002a2.43 2.43 0 0 0 .182-.306c.134-.272.252-.67.252-1.213V56.789c0-2.189-.595-4.007-1.805-5.379l-.064-.074-.088-.043c.034.017-.158-.126-.38-.322a9.61 9.61 0 0 0-.895-.711c-.515-.357-1.243-.675-2.077-.92a4.114 4.114 0 0 0 1.389-1.725l.023-.054.01-.059c.002-.01.17-.476.329-1.096.158-.62.308-1.47.308-2.566v-2.3c0-2.557-.752-4.71-2.262-6.358l-.093-.102-.131-.039c-.031-.01-.269-.155-.598-.389a9.453 9.453 0 0 0-1.375-.832c-1.203-.587-3.028-1.13-5.89-1.13zm-60.95.25h.003c2.299 0 3.997.167 5.216.343 1.181.17 1.846.342 2.33.393 1.474.364 2.501.819 3.22 1.207.667.36.986.623 1.345.803.806.629 1.305 1.3 1.635 1.859.165.28.287.531.387.74.075.158.138.277.214.404.429 1.19.65 2.52.65 4V59.74c0 1.106-.147 2.006-.302 2.684-.146.636-.284.994-.35 1.328-.305.851-.8 1.515-1.257 2.01-.229.247-.446.45-.627.617-.182.166-.31.264-.444.441l.096-.097c-.792.607-1.818 1.062-2.705 1.38-.444.16-.851.286-1.182.385-.299.09-.5.148-.68.217-1.457.362-3.162.531-4.591.615-1.407.083-2.473.078-2.957.12-2.301 0-4.008-.166-5.235-.34-1.193-.17-1.87-.34-2.347-.395l-.002-.002c-1.483-.365-2.515-.813-3.237-1.193-.67-.354-.997-.61-1.355-.785l-.002-.002a6.514 6.514 0 0 1-1.629-1.838 9.008 9.008 0 0 1-.389-.735 4.687 4.687 0 0 0-.215-.4c-.427-1.188-.64-2.517-.64-4.01V42.69c0-1.107.144-2.005.297-2.68.143-.633.278-.99.343-1.32v-.003c.31-.857.808-1.527 1.264-2.027.229-.25.446-.456.627-.625.141-.132.242-.232.346-.351.796-.621 1.828-1.08 2.72-1.4.447-.161.859-.287 1.192-.388.297-.09.496-.147.68-.22 1.473-.363 3.183-.53 4.615-.614 1.408-.081 2.467-.075 2.967-.123zm-49.65.75h7.7c.406 0 .625.077.767.148.071.035.122.07.178.11.015.01.06.028.076.04.147.153.28.46.28 1.002v8.2c0 .524.04.977.052 1.095v.004c.039.457.206.9.492 1.293v.002c1.348 2.11 2.079 3.264 2.268 3.549.144.26.29.444.408.57.118.126.248.257.164.156l.035.043.043.034c.288.224.642.304.986.304h.5a1.662 1.662 0 0 0 .838-.224c.038-.022.084-.027-.029.006l.084-.026.07-.05c.27-.195.48-.469.672-.81 1.36-2.128 2.135-3.348 2.276-3.56l.002-.002a2.67 2.67 0 0 0 .449-1.101c.013-.069.034-.13.01-.063l.021-.062.006-.067c.031-.368.053-.732.053-1.092V34.99c0-.408.075-.629.145-.771.034-.071.067-.122.105-.178.01-.014.027-.058.04-.072.151-.147.456-.28 1.009-.28h7.451c.407 0 .624.078.766.149.07.035.123.07.18.11.014.01.06.026.074.038.147.152.279.461.279 1.004v9.6c0 1.124-.088 1.87-.178 2.373-.08.453-.155.661-.197.918-.246.7-.72 1.563-1.428 2.562l-7.697 10.432v6.516c0 .406-.077.628-.149.773a1.4 1.4 0 0 1-.11.184c-.01.014-.026.058-.038.072-.148.143-.454.27-1.002.27h-8.102c-.408 0-.631-.075-.777-.145a1.403 1.403 0 0 1-.184-.107c-.014-.01-.055-.025-.068-.036-.143-.147-.27-.452-.27-1.011v-6.567l-.1-.133c-4.59-6.15-7.143-9.565-7.648-10.248v-.002a11.297 11.297 0 0 1-1.094-1.752c-.187-.381-.253-.588-.363-.806-.218-.663-.346-1.78-.346-3.293v-9.6c0-.408.076-.629.145-.771.035-.072.07-.122.107-.178.01-.014.028-.058.04-.072.152-.147.457-.28 1.01-.28zm73.05 0h7.85c.407 0 .624.077.766.148.071.035.124.07.18.11.015.01.06.026.074.038.147.152.28.461.28 1.004v22.8c0 .61.212 1.094.425 1.423.107.165.215.294.293.387.078.092.134.197.08.084l.043.091.077.069c.566.506 1.373.607 2.107.687.367.04.714.06.988.073.275.013.523.033.5.029l.043.008h.043c1.363 0 2.186-.157 2.725-.336.539-.18.845-.36.777-.346l.133-.027.1-.09a2.724 2.724 0 0 0 .916-2.053V34.99c0-.408.075-.629.144-.771.035-.072.07-.122.108-.178.01-.014.027-.058.039-.072.152-.147.457-.28 1.01-.28h7.6c.406 0 .623.078.765.149.07.035.123.07.18.11.014.01.06.026.074.038.147.152.28.461.28 1.004v24.75c0 1.106-.147 2.006-.302 2.684-.146.636-.284.994-.35 1.328-.304.851-.8 1.515-1.257 2.01-.229.247-.446.45-.627.617-.181.166-.31.264-.444.441l.096-.097c-.793.608-1.815 1.064-2.695 1.382-.44.16-.845.286-1.172.385-.328.1-.554.16-.744.24l.074-.025c-1.447.362-3.146.531-4.572.615-1.406.083-2.473.078-2.957.12-2.301 0-3.998-.166-5.213-.34-1.18-.17-1.842-.339-2.315-.395-1.46-.365-2.483-.812-3.2-1.193-.668-.355-.994-.612-1.347-.787l-.002-.002a6.514 6.514 0 0 1-1.629-1.838 9.096 9.096 0 0 1-.39-.735 4.721 4.721 0 0 0-.213-.4c-.428-1.188-.64-2.517-.64-4.01V34.99c0-.408.075-.629.144-.771.034-.072.067-.122.105-.178.01-.014.028-.058.04-.072.152-.147.456-.28 1.01-.28zm37.55 0h16.65c2.738 0 4.387.509 5.451 1.029.533.26.92.523 1.235.748.239.17.445.29.674.402 1.324 1.451 1.99 3.312 1.99 5.67v2.3a9.221 9.221 0 0 1-.277 2.32c-.129.503-.246.762-.313 1.07-.267.631-.684 1.035-1.074 1.32a5.571 5.571 0 0 1-.543.344c-.16.09-.269.114-.447.293l-.735.736 1.033.115a5.945 5.945 0 0 1 2.803 1.043c.326.226.587.45.803.64.161.143.293.246.445.35 1.03 1.168 1.555 2.708 1.555 4.72v10.6c0 .407-.077.629-.149.774a1.4 1.4 0 0 1-.109.184c-.01.014-.027.058-.039.072-.148.143-.455.27-1.004.27h-7.75c-.408 0-.631-.075-.777-.145a1.403 1.403 0 0 1-.184-.107c-.014-.01-.055-.025-.068-.036-.143-.147-.27-.452-.27-1.011v-7.65c0-.61-.112-1.05-.238-1.354a2.965 2.965 0 0 0-.174-.35c-.045-.078-.059-.142-.033-.039l-.027-.105-.067-.084c-.405-.507-1.075-.72-1.861-.72h-7.5v10.302c0 .406-.077.628-.149.773a1.4 1.4 0 0 1-.109.184c-.01.014-.027.058-.039.072-.148.143-.456.27-1.004.27h-7.7c-.407 0-.63-.075-.776-.145a1.403 1.403 0 0 1-.184-.107c-.014-.01-.056-.026-.07-.038-.143-.148-.27-.45-.27-1.01v-32.4c0-.408.077-.629.147-.771.034-.072.067-.122.105-.178.01-.014.027-.058.04-.072.152-.147.457-.28 1.009-.28zm-60.95 8c-1.387 0-2.223.157-2.769.34-.546.182-.853.366-.781.35l-.133.028-.101.09c-.587.528-.916 1.23-.916 1.992v13.45c0 .611.212 1.094.425 1.423.107.165.215.295.293.387.078.092.134.196.08.082l.043.094.077.066c.574.513 1.397.61 2.154.69.378.04.74.058 1.023.072.285.013.538.032.52.03l.043.005h.043c1.387 0 2.218-.153 2.762-.332.544-.18.843-.36.785-.348l.134-.025.102-.092a2.724 2.724 0 0 0 .916-2.053V44.49c0-.594-.219-1.065-.434-1.385a3.817 3.817 0 0 0-.29-.375c-.077-.088-.13-.203-.067-.06l-.043-.098-.08-.072c-.575-.521-1.404-.616-2.162-.695-.38-.04-.739-.06-1.022-.075-.282-.014-.545-.038-.502-.029l-.048-.012zm69.95 0v7.4h4.25c.727 0 1.23-.177 1.56-.385a2.39 2.39 0 0 0 .364-.285c.077-.072.148-.088.008-.033l.146-.059.088-.13c.364-.546.533-1.213.533-1.958v-1.7a3.586 3.586 0 0 0-.416-1.706c-.045-.089-.068-.168-.047-.078l-.02-.088-.05-.076c-.424-.637-1.217-.903-2.166-.903zm-70.05.99c.212.044.373.037.651.05.28.014.62.032.967.069.695.073 1.42.282 1.596.441.032.035.071.107.104.145.07.081.147.17.218.277.143.213.264.473.264.828v13.45c0 .534-.18.921-.572 1.283-.214.085-.364.18-.678.283-.419.138-1.136.283-2.45.283l.085.008c-.193-.033-.365-.03-.643-.043a16.882 16.882 0 0 1-.965-.068c-.691-.073-1.411-.28-1.59-.438-.033-.038-.073-.105-.107-.144a2.761 2.761 0 0 1-.215-.286 1.542 1.542 0 0 1-.265-.879V44.49c0-.488.175-.859.572-1.224.214-.087.36-.182.676-.287.419-.14 1.14-.29 2.453-.29zm71.05.01h3.25c.77 0 1.156.193 1.332.457.02.04.04.103.06.142a2.52 2.52 0 0 1 .307 1.25v1.701c0 .585-.13 1.025-.36 1.377-.019.022-.078.053-.097.07-.065.06-.125.115-.213.17-.175.11-.456.233-1.03.233h-3.25z" transform="matrix(.73345 0 0 .73345 -96.07 35.593)"/></g><path d="M45.333 128.836c-2.182-.308-1.063-3.794-1.34-5.697V96.77c.253-2.743 3.012-1.342 4.523-1.688 1.459.14 4.275-.789 3.927 2.222v22.672h5.1c.156-2.946-.346-6.061.32-8.88 2.02-.82 4.289-.218 6.418-.402 2.182.313 1.062 3.792 1.34 5.696-.088 3.892.183 7.828-.145 11.691-1.151 1.394-3.08.501-4.59.756H45.333zm47.24-8.86c.331 4.465-2.408 8.195-5.822 8.86-4.948 1.017-10.546 1.433-15.002-1.941-3.244-3.318-2.064-9.003-2.293-13.602.196-4.61-.534-9.412.718-13.838 2.414-5.178 7.908-5.012 12.075-5.05 3.799.158 8.942 1.116 10.044 6.577.559 5.856.16 11.807.28 17.706v1.287zm-14.667-1.689c.66 3.743 7.317 2.917 6.254-1.603-.052-3.864.105-7.75-.079-11.6-1.557-2.947-7.182-1.995-6.175 2.463v10.74zm28.143 10.549c-4.062.271-9.214-2.383-9.123-8.383-.03-5.827-.117-11.668.053-17.489.326-5.014 4.205-8.005 7.943-7.846 3.72.036 7.478-.253 11.173.15 1.108 1.451.398 3.876.6 5.777.57 2.773-1.474 3.471-3.25 3.084-2.508.222-5.171-.539-7.545.59-1.04 2.342-.366 5.276-.559 7.901.152 2.256-.374 4.714.432 6.793 1.467 1.02 3.265.384 4.892.562.154-2.852-.344-5.873.32-8.598 2.142-.828 4.538-.214 6.79-.403 2.182.313 1.062 3.793 1.34 5.697-.088 3.798.183 7.64-.145 11.409-1.151 1.394-3.08.501-4.59.756h-8.331zm40.316-8.86c.33 4.465-2.408 8.195-5.822 8.86-4.948 1.017-10.546 1.433-15.003-1.941-3.243-3.318-2.063-9.003-2.293-13.602.197-4.61-.533-9.412.72-13.838 2.412-5.178 7.907-5.012 12.074-5.05 3.798.158 8.942 1.116 10.044 6.577.558 5.856.16 11.807.28 17.706v1.287zm-14.667-1.689c.659 3.743 7.317 2.917 6.254-1.603-.053-3.864.105-7.75-.08-11.6-1.556-2.947-7.18-1.995-6.174 2.463v10.74z" style="fill:url(#g);stroke-width:.835523"/></svg>
