<svg xmlns="http://www.w3.org/2000/svg" xmlns:xlink="http://www.w3.org/1999/xlink" width="482" height="179">
  <defs>
    <path id="a" d="M146.32 42.94v85.93H42.64V42.94h103.68Z"/>
    <path id="b" d="M110.97 120.08v-6.74c3.71-1.44 4.96-4.4 5.04-6.19v-7.58c4.19-1.45 5.79-4.9 6.03-6.93 0-.02.01-.07.02-.18v-7.74h14.54c.79.04 3.28 0 5.42-1.92 2.01-1.8 3.03-4.58 3.03-8.26 0-3.59-1-6.38-2.96-8.27-2.28-2.21-5.02-2.31-5.61-2.3h-35.02c3.77-3.73 5.68-7.22 5.68-10.4 0-8.15-4.73-9.37-7.55-9.37-2.39 0-5.74 1.03-6.11 1.14l-.36.12L55.8 68.8H43.84v47.67l29.2 11.2h28.36c3.32 0 5.87-.91 7.58-2.7 1.9-1.98 2.01-4.26 1.99-4.89Zm-36.85 1.76-24.45-9.38V74.64h7.8c22.86-14.3 35.55-22.24 38.09-23.83 1.05-.31 2.97-.78 4.03-.78.83 0 .99.16 1.04.21.32.31.68 1.36.68 3.33 0 2.92-5.25 7.87-8.8 10.29 0 .01.02.04.06.11h-9.72v5.83h53.64c.06-.01.1-.01.1-.01.01 0 .82.06 1.45.67.77.75 1.18 2.16 1.18 4.08 0 1.86-.37 3.23-1.04 3.88-.45.43-1.02.47-1.19.48-.01 0-.02-.01-.05-.01h-34.73v5.83h14.02v7.32c-.11.47-.82 2.37-4.54 2.37h-9.48v5.83h7.97v6.77-.21c-.18.6-1.22 1.53-4.14 1.53h-9.48v5.83h8.58v5.96c0 .07.01.11.01.12 0 .01-.09.39-.38.7-.55.58-1.75.9-3.37.9H74.12Z"/>
    <path id="d" d="M-2.96-3.31h186v186h-186v-186Z"/>
    <path id="e" d="M2.04 90c0 48.77 39.54 88.31 88.31 88.31s88.31-39.54 88.31-88.31c-.01-48.77-39.54-88.31-88.31-88.31S2.04 41.23 2.04 90Zm13.29 0c0-41.43 33.58-75.02 75.02-75.02 41.43 0 75.02 33.59 75.02 75.02 0 41.43-33.59 75.02-75.02 75.02-41.43 0-75.02-33.59-75.02-75.02Z"/>
    <path id="g" d="M187.77 71.69c63.27-.5 83.27-.5 146.55 0"/>
    <path id="h" d="M201.37 69.19c-.95 0-1.24-.38-1.38-.42-.28-.28-.42-.74-.42-1.38v-6.4c-4.59-6.15-7.14-9.56-7.65-10.25-1.15-1.55-1.38-2.43-1.53-2.7-.25-.76-.37-1.91-.37-3.45v-9.6c0-.95.38-1.23.42-1.37.28-.28.74-.43 1.38-.43h7.7c.95 0 1.23.39 1.37.43.28.28.43.74.43 1.37v8.2c0 .5.04.95.05 1.05.03.37.16.72.4 1.05 1.38 2.16 2.14 3.36 2.3 3.6.25.45.47.59.52.65.18.14.41.2.68.2h.5c.4 0 .6-.18.67-.2.18-.13.36-.35.53-.65 1.38-2.16 2.14-3.36 2.3-3.6.35-.5.36-.94.4-1.05.03-.36.05-.71.05-1.05v-8.2c0-.95.38-1.23.42-1.37.28-.28.74-.43 1.38-.43h7.45c.95 0 1.23.39 1.37.43.28.28.43.74.43 1.37v9.6c0 2.3-.36 3.11-.4 3.45-.27.77-.77 1.67-1.5 2.7l-7.6 10.3v6.35c0 .95-.39 1.24-.43 1.38-.28.28-.74.42-1.37.42h-8.1Zm55.6-9.45c0 2.3-.61 3.76-.68 4.18-.67 1.87-2.16 2.88-2.4 3.2-1.72 1.32-4.27 1.87-4.75 2.07-3.02.75-6.91.68-7.67.75-4.65 0-6.93-.67-7.7-.75-3.05-.75-4.3-1.86-4.78-2.07-1.72-1.33-2.16-2.88-2.4-3.2-.45-1.25-.67-2.64-.67-4.18V42.69c0-2.3.6-3.75.67-4.17.68-1.88 2.16-2.9 2.4-3.23 1.73-1.35 4.3-1.89 4.78-2.1 3.05-.75 6.93-.67 7.7-.75 4.65 0 6.9.68 7.67.75 3.03.75 4.28 1.89 4.75 2.1 1.73 1.35 2.16 2.91 2.4 3.23.45 1.25.68 2.64.68 4.17v17.05Zm-19.7-1.8c0 1 .67 1.51.75 1.68.75.67 3.1.61 3.45.67 2.7 0 3.1-.6 3.45-.67.5-.45.75-1.01.75-1.68V44.49c0-.95-.68-1.46-.75-1.62-.75-.68-3.11-.61-3.45-.68-2.7 0-3.11.61-3.45.68-.5.45-.75.99-.75 1.62v13.45Zm56.7 1.8c0 2.3-.61 3.76-.68 4.18-.67 1.87-2.16 2.88-2.4 3.2-1.72 1.32-4.25 1.87-4.72 2.07-3 .75-6.89.68-7.65.75-4.65 0-6.89-.67-7.65-.75-3-.75-4.26-1.86-4.73-2.07-1.72-1.33-2.16-2.88-2.4-3.2-.45-1.25-.67-2.64-.67-4.18V34.99c0-.95.38-1.23.42-1.37.28-.28.74-.43 1.38-.43h7.85c.95 0 1.23.39 1.37.43.28.28.43.74.43 1.37v22.8c0 1 .67 1.51.75 1.68.75.67 3.01.61 3.35.67 2.65 0 3.06-.6 3.4-.67.5-.45.75-1.01.75-1.68v-22.8c0-.95.38-1.23.42-1.37.28-.28.74-.43 1.38-.43h7.6c.95 0 1.23.39 1.37.43.28.28.43.74.43 1.37v24.75Zm17.95-17.55v6.4h3.75c1.3 0 1.57-.6 1.75-.67.3-.45.45-1.01.45-1.68v-1.7c0-1-.41-1.5-.45-1.67-.3-.45-.89-.68-1.75-.68h-3.75Zm-9.5 27c-.95 0-1.24-.38-1.38-.42-.28-.28-.42-.74-.42-1.38v-32.4c0-.95.38-1.23.42-1.37.28-.28.74-.43 1.38-.43h16.65c5.6 0 6.95 2.1 7.72 2.33 1.42 1.55 2.13 3.56 2.13 6.02v2.3c0 2.1-.57 3.22-.63 3.58-.62 1.47-1.96 1.91-2.17 2.12 2.7.3 3.93 1.98 4.37 2.2 1.12 1.27 1.68 2.95 1.68 5.05v10.6c0 .95-.39 1.24-.43 1.38-.28.28-.74.42-1.37.42h-7.75c-.95 0-1.24-.38-1.38-.42-.28-.28-.42-.74-.42-1.38v-7.65c0-1.1-.39-1.46-.43-1.62-.28-.35-.77-.53-1.47-.53h-7v9.8c0 .95-.39 1.24-.43 1.38-.28.28-.74.42-1.37.42h-7.7Z"/>
    <path id="j" d="M187.24 114.69c137.8-.5 157.8-.5 295.6 0"/>
    <path id="k" d="M192.49 112.19c-.95 0-1.24-.38-1.37-.42-.29-.28-.43-.74-.43-1.38v-32.4c0-.95.38-1.23.43-1.37.28-.28.74-.43 1.37-.43h7.75c.95 0 1.24.39 1.38.43.28.28.42.74.42 1.37v24.75h6.85v-8.1c0-.95.38-1.23.43-1.37.28-.28.74-.43 1.37-.43h7.25c.95 0 1.24.39 1.38.43.28.28.42.74.42 1.37v15.75c0 .95-.38 1.24-.42 1.38-.29.28-.75.42-1.38.42h-25.45Zm63.45-9.45c0 2.3-.61 3.76-.67 4.18-.68 1.87-2.16 2.88-2.4 3.2-1.73 1.32-4.28 1.87-4.75 2.07-3.03.75-6.91.68-7.68.75-4.65 0-6.93-.67-7.7-.75-3.05-.75-4.3-1.86-4.77-2.07-1.73-1.33-2.16-2.88-2.4-3.2-.45-1.25-.68-2.64-.68-4.18V85.69c0-2.3.61-3.75.68-4.17.67-1.88 2.16-2.9 2.4-3.23 1.72-1.35 4.29-1.89 4.77-2.1 3.05-.75 6.93-.67 7.7-.75 4.65 0 6.91.68 7.68.75 3.02.75 4.27 1.89 4.75 2.1 1.72 1.35 2.16 2.91 2.4 3.23.45 1.25.67 2.64.67 4.17v17.05Zm-19.7-1.8c0 1 .68 1.51.75 1.68.75.67 3.11.61 3.45.67 2.7 0 3.11-.6 3.45-.67.5-.45.75-1.01.75-1.68V87.49c0-.95-.67-1.46-.75-1.62-.75-.68-3.1-.61-3.45-.68-2.7 0-3.1.61-3.45.68-.5.45-.75.99-.75 1.62v13.45Zm37.8 11.25c-6.25 0-8.35-2.25-9.27-2.5-2.02-1.66-3.03-4.23-3.03-7.7v-15.6c0-5.2 2.72-6.93 3.03-7.7 2.01-1.66 5.1-2.5 9.27-2.5h12.5c.95 0 1.24.39 1.38.43.28.28.42.74.42 1.37v6.05c0 .95-.38 1.24-.42 1.38-.29.28-.75.42-1.38.42h-10.4c-1.55 0-2.07.57-2.3.63-.5.42-.75 1.04-.75 1.87v11.95c0 1.25.52 1.67.58 1.85.38.4.95.6 1.72.6h4.85v-7.8c0-.95.38-1.23.43-1.37.28-.28.74-.43 1.37-.43h7.75c.95 0 1.24.39 1.38.43.28.28.42.74.42 1.37v15.45c0 .95-.38 1.24-.42 1.38-.29.28-.75.42-1.38.42h-15.75Zm54.15-9.45c0 2.3-.61 3.76-.67 4.18-.68 1.87-2.16 2.88-2.4 3.2-1.73 1.32-4.28 1.87-4.75 2.07-3.03.75-6.91.68-7.68.75-4.65 0-6.93-.67-7.7-.75-3.05-.75-4.3-1.86-4.77-2.07-1.73-1.33-2.16-2.88-2.4-3.2-.45-1.25-.68-2.64-.68-4.18V85.69c0-2.3.61-3.75.68-4.17.67-1.88 2.16-2.9 2.4-3.23 1.72-1.35 4.29-1.89 4.77-2.1 3.05-.75 6.93-.67 7.7-.75 4.65 0 6.91.68 7.68.75 3.02.75 4.27 1.89 4.75 2.1 1.72 1.35 2.16 2.91 2.4 3.23.45 1.25.67 2.64.67 4.17v17.05Zm-19.7-1.8c0 1 .68 1.51.75 1.68.75.67 3.11.61 3.45.67 2.7 0 3.11-.6 3.45-.67.5-.45.75-1.01.75-1.68V87.49c0-.95-.67-1.46-.75-1.62-.75-.68-3.1-.61-3.45-.68-2.7 0-3.1.61-3.45.68-.5.45-.75.99-.75 1.62v13.45Zm39.1 11.25c-.95 0-1.24-.38-1.37-.42-.29-.28-.43-.74-.43-1.38v-32.4c0-.95.38-1.23.43-1.37.28-.28.74-.43 1.37-.43h7.75c.95 0 1.24.39 1.38.43.28.28.42.74.42 1.37v10.85h8.35V77.99c0-.95.38-1.23.43-1.37.28-.28.74-.43 1.37-.43h7.75c.95 0 1.24.39 1.38.43.28.28.42.74.42 1.37v32.4c0 .95-.38 1.24-.42 1.38-.29.28-.75.42-1.38.42h-7.75c-.95 0-1.24-.38-1.37-.42-.29-.28-.43-.74-.43-1.38v-11.1h-8.35v11.1c0 .95-.38 1.24-.42 1.38-.29.28-.75.42-1.38.42h-7.75Zm37.95 0c-.95 0-1.24-.38-1.37-.42-.29-.28-.43-.74-.43-1.38v-32.4c0-.95.38-1.23.43-1.37.28-.28.74-.43 1.37-.43h23.2c.95 0 1.24.39 1.38.43.28.28.42.74.42 1.37v5.85c0 .95-.38 1.24-.42 1.38-.29.28-.75.42-1.38.42h-13.8v3.85h9.75c.95 0 1.24.39 1.38.43.28.28.42.74.42 1.37v5.35c0 .95-.38 1.24-.42 1.38-.29.28-.75.42-1.38.42h-9.75v4.3h13.8c.95 0 1.24.39 1.38.43.28.28.42.74.42 1.37v5.85c0 .95-.38 1.24-.42 1.38-.29.28-.75.42-1.38.42h-23.2Zm42.2-27v6.4h3.75c1.3 0 1.58-.6 1.75-.67.3-.45.45-1.01.45-1.68v-1.7c0-1-.4-1.5-.45-1.67-.3-.45-.88-.68-1.75-.68h-3.75Zm-9.5 27c-.95 0-1.24-.38-1.37-.42-.29-.28-.43-.74-.43-1.38v-32.4c0-.95.38-1.23.43-1.37.28-.28.74-.43 1.37-.43h16.65c5.6 0 6.95 2.1 7.73 2.33 1.41 1.55 2.12 3.56 2.12 6.02v2.3c0 2.1-.56 3.22-.62 3.58-.63 1.47-1.96 1.91-2.18 2.12 2.7.3 3.94 1.98 4.38 2.2 1.11 1.27 1.67 2.95 1.67 5.05v10.6c0 .95-.38 1.24-.42 1.38-.29.28-.75.42-1.38.42h-7.75c-.95 0-1.24-.38-1.37-.42-.29-.28-.43-.74-.43-1.38v-7.65c0-1.1-.38-1.46-.42-1.62-.29-.35-.78-.53-1.48-.53h-7v9.8c0 .95-.38 1.24-.42 1.38-.29.28-.75.42-1.38.42h-7.7Zm37.15 0c-.95 0-1.24-.38-1.37-.42-.29-.28-.43-.74-.43-1.38v-32.4c0-.95.38-1.23.43-1.37.28-.28.74-.43 1.37-.43h23.2c.95 0 1.24.39 1.38.43.28.28.42.74.42 1.37v5.85c0 .95-.38 1.24-.42 1.38-.29.28-.75.42-1.38.42h-13.8v3.85h9.75c.95 0 1.24.39 1.38.43.28.28.42.74.42 1.37v5.35c0 .95-.38 1.24-.42 1.38-.29.28-.75.42-1.38.42h-9.75v4.3h13.8c.95 0 1.24.39 1.38.43.28.28.42.74.42 1.37v5.85c0 .95-.38 1.24-.42 1.38-.29.28-.75.42-1.38.42h-23.2Z"/>
    <linearGradient id="c" x1="94.45" x2="94.45" y1="44.2" y2="127.67" gradientUnits="userSpaceOnUse">
      <stop offset="0%" stop-color="#3a3a3a"/>
      <stop offset="100%" stop-color="#3a3a3a"/>
    </linearGradient>
    <linearGradient id="f" x1="2.04" x2="178.66" y1="90" y2="90" gradientUnits="userSpaceOnUse">
      <stop offset="0%" stop-color="#2dad67"/>
      <stop offset="100%" stop-color="#2dad67"/>
    </linearGradient>
    <linearGradient id="i" x1="190.02" x2="332.17" y1="59.22" y2="59.22" gradientUnits="userSpaceOnUse">
      <stop offset="0%" stop-color="#3a3a3a"/>
      <stop offset="100%" stop-color="#3a3a3a"/>
    </linearGradient>
    <linearGradient id="l" x1="190.69" x2="480.39" y1="102.42" y2="102.42" gradientUnits="userSpaceOnUse">
      <stop offset="0%" stop-color="#3a3a3a"/>
      <stop offset="100%" stop-color="#3a3a3a"/>
    </linearGradient>
  </defs>
  <use xlink:href="#a" width="100%" height="100%" fill-opacity="0"/>
  <use xlink:href="#a" width="100%" height="100%" fill-opacity="0" stroke="#000" stroke-opacity="0"/>
  <use xlink:href="#b" width="100%" height="100%" fill="url(#c)"/>
  <use xlink:href="#b" width="100%" height="100%" fill-opacity="0" stroke="#000" stroke-opacity="0"/>
  <use xlink:href="#d" width="100%" height="100%" fill-opacity="0"/>
  <use xlink:href="#d" width="100%" height="100%" fill-opacity="0" stroke="#000" stroke-opacity="0"/>
  <g>
    <use xlink:href="#e" width="100%" height="100%" fill="url(#f)"/>
    <use xlink:href="#e" width="100%" height="100%" fill-opacity="0" stroke="#000" stroke-opacity="0"/>
  </g>
  <g>
    <g transform="translate(0 15.935)">
      <use xlink:href="#g" width="100%" height="100%" fill-opacity="0"/>
      <use xlink:href="#g" width="100%" height="100%" fill-opacity="0" stroke="#000" stroke-opacity="0"/>
    </g>
    <g transform="translate(0 15.935)">
      <use xlink:href="#h" width="100%" height="100%" fill="url(#i)"/>
      <use xlink:href="#h" width="100%" height="100%" fill-opacity="0" stroke="#000" stroke-opacity="0"/>
    </g>
    <g transform="translate(0 15.935)">
      <use xlink:href="#j" width="100%" height="100%" fill-opacity="0"/>
      <use xlink:href="#j" width="100%" height="100%" fill-opacity="0" stroke="#000" stroke-opacity="0"/>
    </g>
    <g transform="translate(0 15.935)">
      <use xlink:href="#k" width="100%" height="100%" fill="url(#l)"/>
      <use xlink:href="#k" width="100%" height="100%" fill-opacity="0" stroke="#000" stroke-opacity="0"/>
    </g>
  </g>
</svg>
